<?xml version="1.0" encoding="iso-8859-1"?>
<!-- Generator: Adobe Illustrator 19.0.0, SVG Export Plug-In . SVG Version: 6.00 Build 0)  -->
<svg version="1.1" id="Layer_1" xmlns="http://www.w3.org/2000/svg" xmlns:xlink="http://www.w3.org/1999/xlink" x="0px" y="0px"
	 viewBox="0 0 512 512" style="enable-background:new 0 0 512 512;" xml:space="preserve">
<g transform="translate(1 1)">
	<g>
		<g>
			<path d="M229.4,169.667c-5.12,0-8.533,3.413-8.533,8.533v119.467c0,5.12,3.413,8.533,8.533,8.533h51.2
				c5.12,0,8.533-3.413,8.533-8.533V178.2c0-5.12-3.413-8.533-8.533-8.533H229.4z M272.067,186.733V229.4h-34.133v-42.667H272.067z
				 M237.933,289.133v-42.667h34.133v42.667H237.933z"/>
			<path d="M502.467,7.533h-153.6c-5.12,0-8.533,3.413-8.533,8.533v25.6H306.2V7.533c0-5.12-3.413-8.533-8.533-8.533h-85.333
				c-5.12,0-8.533,3.413-8.533,8.533v34.133h-34.133v-25.6c0-5.12-3.413-8.533-8.533-8.533H7.533C2.413,7.533-1,10.947-1,16.067
				v68.267c0,5.12,3.413,8.533,8.533,8.533h153.6c5.12,0,8.533-3.413,8.533-8.533v-25.6H203.8v34.133
				c0,5.12,3.413,8.533,8.533,8.533h8.533v34.293c-18.838,1.687-33.28,17.207-33.28,36.534V303.64
				c0,19.327,14.442,34.847,33.28,36.534v42.399l-14.797,36.992c-1.443,1.489-2.27,3.588-2.27,6.101V459.8h-34.133v-25.6
				c0-5.12-3.413-8.533-8.533-8.533H7.533C2.413,425.667-1,429.08-1,434.2v68.267c0,5.12,3.413,8.533,8.533,8.533h153.6
				c5.12,0,8.533-3.413,8.533-8.533v-25.6H203.8v25.6c0,5.12,3.413,8.533,8.533,8.533h85.333c5.12,0,8.533-3.413,8.533-8.533v-25.6
				h34.133v25.6c0,5.12,3.413,8.533,8.533,8.533h153.6c5.12,0,8.533-3.413,8.533-8.533V434.2c0-5.12-3.413-8.533-8.533-8.533h-153.6
				c-5.12,0-8.533,3.413-8.533,8.533v25.6H306.2v-34.133c0-2.513-0.826-4.612-2.27-6.101l-14.797-36.992v-42.336
				c19.253-1.289,34.133-17.016,34.133-37.451v-130.56c0-19.618-14.88-35.31-34.133-36.598V101.4h8.533
				c5.12,0,8.533-3.413,8.533-8.533V58.733h34.133v25.6c0,5.12,3.413,8.533,8.533,8.533h153.6c5.12,0,8.533-3.413,8.533-8.533
				V16.067C511,10.947,507.587,7.533,502.467,7.533z M152.6,41.667h-34.133V24.6H152.6V41.667z M67.267,41.667V24.6H101.4v17.067
				H67.267z M101.4,58.733V75.8H67.267V58.733H101.4z M50.2,24.6v17.067H16.067V24.6H50.2z M16.067,58.733H50.2V75.8H16.067V58.733z
				 M118.467,75.8V58.733H152.6V75.8H118.467z M152.6,459.8h-34.133v-17.067H152.6V459.8z M67.267,459.8v-17.067H101.4V459.8H67.267
				z M101.4,476.867v17.067H67.267v-17.067H101.4z M50.2,442.733V459.8H16.067v-17.067H50.2z M16.067,476.867H50.2v17.067H16.067
				V476.867z M118.467,493.933v-17.067H152.6v17.067H118.467z M357.4,476.867h34.133v17.067H357.4V476.867z M442.733,476.867v17.067
				H408.6v-17.067H442.733z M408.6,459.8v-17.067h34.133V459.8H408.6z M459.8,493.933v-17.067h34.133v17.067H459.8z M493.933,459.8
				H459.8v-17.067h34.133V459.8z M391.533,442.733V459.8H357.4v-17.067H391.533z M235.373,391.533h39.253l10.24,25.6h-59.733
				L235.373,391.533z M272.067,374.467h-34.133v-34.133h34.133V374.467z M289.133,493.933h-25.6V459.8
				c0-5.12-3.413-8.533-8.533-8.533s-8.533,3.413-8.533,8.533v34.133h-25.6V434.2h68.267V493.933z M305.347,172.227v130.56
				c0,11.093-8.533,19.627-19.627,19.627h-62.293c-11.093,0-19.627-8.533-19.627-19.627v-130.56
				c0-11.093,8.533-19.627,19.627-19.627h5.973h51.2h5.12C296.813,152.6,305.347,161.133,305.347,172.227z M272.067,135.533h-34.133
				V101.4h34.133V135.533z M289.133,84.333H280.6h-51.2h-8.533V16.067h25.6V50.2c0,5.12,3.413,8.533,8.533,8.533
				s8.533-3.413,8.533-8.533V16.067h25.6V84.333z M493.933,41.667H459.8V24.6h34.133V41.667z M408.6,41.667V24.6h34.133v17.067
				H408.6z M442.733,58.733V75.8H408.6V58.733H442.733z M391.533,24.6v17.067H357.4V24.6H391.533z M357.4,58.733h34.133V75.8H357.4
				V58.733z M459.8,75.8V58.733h34.133V75.8H459.8z"/>
			<path d="M161.133,383c0-5.12-3.413-8.533-8.533-8.533c-5.12,0-8.533,3.413-8.533,8.533s3.413,8.533,8.533,8.533
				C157.72,391.533,161.133,388.12,161.133,383z"/>
			<path d="M41.667,272.067c0-5.12-3.413-8.533-8.533-8.533c-5.12,0-8.533,3.413-8.533,8.533c0,5.12,3.413,8.533,8.533,8.533
				C38.253,280.6,41.667,277.187,41.667,272.067z"/>
			<path d="M374.467,144.067c0-5.12-3.413-8.533-8.533-8.533s-8.533,3.413-8.533,8.533c0,5.12,3.413,8.533,8.533,8.533
				S374.467,149.187,374.467,144.067z"/>
			<path d="M476.867,246.467c0-5.12-3.413-8.533-8.533-8.533s-8.533,3.413-8.533,8.533s3.413,8.533,8.533,8.533
				S476.867,251.587,476.867,246.467z"/>
			<path d="M75.8,203.8c0,5.12,3.413,8.533,8.533,8.533c5.12,0,8.533-3.413,8.533-8.533c0-14.507,11.093-25.6,25.6-25.6
				c5.12,0,8.533-3.413,8.533-8.533s-3.413-8.533-8.533-8.533c-14.507,0-25.6-11.093-25.6-25.6c0-5.12-3.413-8.533-8.533-8.533
				c-5.12,0-8.533,3.413-8.533,8.533c0,14.507-11.093,25.6-25.6,25.6c-5.12,0-8.533,3.413-8.533,8.533S45.08,178.2,50.2,178.2
				C64.707,178.2,75.8,189.293,75.8,203.8z M84.333,161.133c2.56,3.413,5.12,5.973,8.533,8.533c-3.413,2.56-5.973,5.12-8.533,8.533
				c-2.56-3.413-5.12-5.973-8.533-8.533C79.213,167.107,81.773,164.547,84.333,161.133z"/>
			<path d="M417.133,391.533c5.12,0,8.533-3.413,8.533-8.533v-13.653l20.48-20.48H459.8c5.12,0,8.533-3.413,8.533-8.533
				c0-5.12-3.413-8.533-8.533-8.533h-13.653l-20.48-20.48v-13.653c0-5.12-3.413-8.533-8.533-8.533s-8.533,3.413-8.533,8.533v13.653
				l-20.48,20.48h-13.653c-5.12,0-8.533,3.413-8.533,8.533c0,5.12,3.413,8.533,8.533,8.533h13.653l20.48,20.48V383
				C408.6,388.12,412.013,391.533,417.133,391.533z M417.133,326.68l13.653,13.653l-13.653,13.653l-13.653-13.653L417.133,326.68z"
				/>
		</g>
	</g>
</g>
<g>
</g>
<g>
</g>
<g>
</g>
<g>
</g>
<g>
</g>
<g>
</g>
<g>
</g>
<g>
</g>
<g>
</g>
<g>
</g>
<g>
</g>
<g>
</g>
<g>
</g>
<g>
</g>
<g>
</g>
</svg>
